<?xml version="1.0" encoding="utf-8"?>
<!-- Generator: Adobe Illustrator 25.0.0, SVG Export Plug-In . SVG Version: 6.00 Build 0)  -->
<svg version="1.1" id="Capa_1" xmlns="http://www.w3.org/2000/svg" xmlns:xlink="http://www.w3.org/1999/xlink" x="0px" y="0px"
	 viewBox="0 0 100 100" style="enable-background:new 0 0 100 100;" xml:space="preserve">
<style type="text/css">
	.st0{fill:#22727C;}
</style>
<g>
	<g transform="scale(5.12,5.12)">
		<path class="st0" d="M4.1,1.2C3,1.2,2.2,2.3,2.2,3.4s0,2.5-0.3,3.7C1.5,8.3,0.9,9,0,9.1v1.1c0.9,0.1,1.5,0.8,1.8,2
			s0.4,2.6,0.3,3.7c0,1.2,0.8,2.2,1.9,2.2h11.4c1.1,0,1.9-1.1,1.9-2.2s0-2.5,0.3-3.7s0.9-1.9,1.8-2V9.1c-0.9-0.1-1.5-0.8-1.8-2
			s-0.4-2.6-0.3-3.7c0-1.2-0.8-2.2-1.9-2.2C15.4,1.2,4.1,1.2,4.1,1.2z M4.1,2.1h11.4c0.3,0,0.6,0.2,0.7,0.3c0.2,0.2,0.3,0.6,0.3,0.9
			c0,1.1,0,2.7,0.4,4c0.3,1.2,0.9,1.9,1.5,2.3c-0.6,0.4-1.1,1.1-1.5,2.3c-0.4,1.3-0.4,2.9-0.4,4c0,0.3-0.1,0.7-0.3,0.9
			c-0.1,0.1-0.4,0.3-0.7,0.3H4.1c-0.3,0-0.6-0.2-0.7-0.3C3.2,16.7,3,16.3,3,16c0-1.1,0-2.7-0.4-4c-0.3-1.3-0.8-2-1.4-2.3
			c0.6-0.4,1.1-1.1,1.5-2.3C3,6.1,3.1,4.5,3,3.4c0-0.4,0.2-0.7,0.4-1C3.5,2.3,3.7,2.1,4.1,2.1z M6.6,5.2V14H10
			c0.9,0,1.6-0.2,2.1-0.7c0.5-0.4,0.8-1.1,0.8-1.8c0-1.2-0.8-2-1.9-2.2l0,0c0.8-0.2,1.5-1,1.5-1.9c0-0.7-0.2-1.2-0.7-1.6
			c-0.4-0.4-1.1-0.6-1.8-0.6L6.6,5.2z M8,6.4h1.7c1,0,1.5,0.4,1.5,1.2c0,0.9-0.6,1.3-1.8,1.3H8V6.4z M8,10.1h1.7
			c1.2,0,1.9,0.5,1.9,1.4s-0.6,1.4-1.8,1.4H8V10.1z"/>
	</g>
</g>
</svg>
