<?xml version="1.0" encoding="utf-8"?>
<!-- Generator: Adobe Illustrator 25.0.0, SVG Export Plug-In . SVG Version: 6.00 Build 0)  -->
<svg version="1.1" id="Capa_1" xmlns="http://www.w3.org/2000/svg" xmlns:xlink="http://www.w3.org/1999/xlink" x="0px" y="0px"
	 viewBox="0 0 101 107" style="enable-background:new 0 0 101 107;" xml:space="preserve">
<style type="text/css">
	.st0{fill:#22727C;}
</style>
<g>
	<g transform="scale(5.33333,5.33333)">
		<path class="st0" d="M3,1.1c-1,0-1.8,0.8-1.8,1.7l0.1,1.6c0,0.3,0.2,0.5,0.4,0.6C2.1,5.2,2.4,5.2,2.6,5C2.8,4.9,3,4.6,2.9,4.4
			L2.8,2.8c0-0.1,0.1-0.2,0.3-0.2h13.4c0.2,0,0.3,0.1,0.3,0.2l-0.7,8c0,0.2,0.1,0.5,0.3,0.6c0.2,0.1,0.5,0.2,0.8,0.1
			s0.4-0.3,0.4-0.6l0.7-8c0.1-0.9-0.7-1.7-1.8-1.7L3,1.1z M6.6,4.3C6.3,4.3,6,4.5,5.9,4.7c-0.1,0.2-0.1,0.5,0,0.7
			C6,5.6,6.3,5.7,6.6,5.7H13l-0.2,3h-5c-0.3,0-0.5,0.1-0.7,0.3c-0.1,0.2-0.1,0.5,0,0.7c0.1,0.2,0.4,0.3,0.7,0.3h4.9l-0.2,3.1
			L10,14.1l-2.7-1v-0.6c0-0.3-0.1-0.5-0.4-0.6c-0.2-0.1-0.5-0.1-0.8,0c-0.2,0.1-0.4,0.4-0.4,0.6v1c0,0.3,0.2,0.5,0.5,0.6l3.5,1.2
			c0.2,0.1,0.3,0.1,0.5,0l3.3-1.1c0.3-0.1,0.5-0.3,0.5-0.6l0.2-4.1c0-0.1,0-0.2,0-0.3l0.2-4.3c0-0.2-0.1-0.4-0.2-0.5
			c-0.1-0.1-0.3-0.2-0.5-0.2L6.6,4.3z M2.4,6.8C2.2,6.8,2,6.9,1.9,7C1.7,7.2,1.7,7.4,1.7,7.6l0.7,8.7c0.1,0.6,0.5,1.2,1.2,1.4
			l5.5,1.8c0,0,0,0,0,0c0.4,0.1,0.8,0.1,1.2,0l5.5-1.8c0.7-0.2,1.1-0.8,1.2-1.4l0.2-2c0-0.3-0.1-0.5-0.3-0.6s-0.5-0.2-0.8-0.1
			c-0.2,0.1-0.4,0.3-0.4,0.6l-0.2,2c0,0.1-0.1,0.2-0.2,0.2c0,0,0,0,0,0l-5.5,1.8c-0.1,0-0.1,0-0.2,0l-5.5-1.8c0,0,0,0,0,0
			c-0.1,0-0.2-0.1-0.2-0.2L3.2,7.5C3.2,7.1,2.8,6.8,2.4,6.8L2.4,6.8z"/>
	</g>
</g>
</svg>
