<?xml version="1.0" encoding="utf-8"?>
<!-- Generator: Adobe Illustrator 25.0.0, SVG Export Plug-In . SVG Version: 6.00 Build 0)  -->
<svg version="1.1" id="Capa_1" xmlns="http://www.w3.org/2000/svg" xmlns:xlink="http://www.w3.org/1999/xlink" x="0px" y="0px"
	 viewBox="0 0 59.6 30.8" style="enable-background:new 0 0 59.6 30.8;" xml:space="preserve">
<style type="text/css">
	.st0{fill-rule:evenodd;clip-rule:evenodd;fill:#22727C;}
	.st1{fill-rule:evenodd;clip-rule:evenodd;fill:none;stroke:#21737C;stroke-width:2;stroke-miterlimit:10;}
</style>
<g>
	<g transform="scale(5.33333,5.33333)">
		<path class="st0" d="M2.6,1.3v2.4C2.3,3.8,2.2,3.8,2,3.8C1.4,3.8,1.1,3.5,1.1,3c0-0.5,0.3-0.8,0.8-0.8c0.1,0,0.1,0,0.2,0V1.3H2.6z
			 M2.1,2.6c-0.1,0-0.1,0-0.2,0C1.7,2.6,1.6,2.7,1.6,3c0,0.3,0.1,0.4,0.4,0.4c0.1,0,0.1,0,0.2,0C2.1,3.4,2.1,2.6,2.1,2.6z"/>
		<path class="st0" d="M3.3,2.1v1.2c0,0.4,0,0.6-0.1,0.8C3.1,4.3,3,4.4,2.8,4.5L2.3,4.3c0.2-0.1,0.3-0.2,0.4-0.3
			c0.1-0.1,0.1-0.3,0.1-0.8V2.1L3.3,2.1L3.3,2.1z"/>
		<rect x="2.8" y="1.3" class="st0" width="0.5" height="0.5"/>
		<path class="st0" d="M3.6,2.3C3.8,2.2,4,2.1,4.3,2.1c0.2,0,0.4,0.1,0.5,0.2c0,0.1,0.1,0.2,0.1,0.4v1c-0.2,0-0.5,0.1-0.7,0.1
			c-0.4,0-0.6-0.1-0.6-0.5c0-0.4,0.2-0.5,0.8-0.6V2.6c0-0.1,0-0.1-0.2-0.1C4,2.5,3.8,2.5,3.6,2.6L3.6,2.3z M4.4,3.1
			C4.1,3.1,4,3.1,4,3.3C4,3.4,4,3.4,4.2,3.4c0.1,0,0.1,0,0.2,0V3.1z"/>
		<path class="st0" d="M5.1,2.2c0.3-0.1,0.5-0.1,0.8-0.1c0.2,0,0.4,0.1,0.5,0.2c0.1,0.1,0.1,0.2,0.1,0.5v1H6v-1
			c0-0.2-0.1-0.3-0.2-0.3c-0.1,0-0.1,0-0.2,0v1.2H5.1V2.2z"/>
		<path class="st0" d="M6.7,4c0.2,0.1,0.3,0.1,0.5,0.1c0.3,0,0.5-0.1,0.5-0.4v0c-0.1,0-0.2,0.1-0.3,0.1C6.9,3.8,6.7,3.5,6.7,3
			c0-0.6,0.4-0.9,1.1-0.9c0.2,0,0.4,0,0.6,0.1L8.3,2.5c-0.1,0,0,0-0.1,0v0.1l0,0.2l0,0.3c0,0.1,0,0.1,0,0.2v0.1c0,0.4,0,0.6-0.1,0.8
			C7.9,4.4,7.6,4.5,7.2,4.5c-0.2,0-0.4,0-0.5-0.1C6.7,4.4,6.7,4,6.7,4z M7.7,2.5L7.7,2.5L7.7,2.5c-0.1,0-0.3,0-0.3,0.1
			C7.2,2.7,7.2,2.8,7.2,3c0,0.3,0.1,0.4,0.3,0.4c0.1,0,0.1,0,0.2,0v0V3.1c0-0.1,0-0.1,0-0.2l0-0.2L7.7,2.5L7.7,2.5L7.7,2.5z"/>
		<path class="st0" d="M9.2,2.1c0.5,0,0.8,0.3,0.8,0.8c0,0.5-0.3,0.8-0.9,0.8c-0.5,0-0.8-0.3-0.8-0.8C8.4,2.4,8.7,2.1,9.2,2.1z
			 M9.2,3.4c0.2,0,0.3-0.2,0.3-0.4c0-0.3-0.1-0.4-0.3-0.4C9,2.5,8.9,2.7,8.9,2.9C8.9,3.2,9,3.4,9.2,3.4z"/>
	</g>
</g>
<path class="st1" d="M55.3,29.2H4.4c-1.5,0-2.7-1.2-2.7-2.7V4.4c0-1.5,1.2-2.7,2.7-2.7h50.9c1.5,0,2.7,1.2,2.7,2.7v22.1
	C58,27.9,56.8,29.2,55.3,29.2z"/>
</svg>
