<?xml version="1.0" encoding="utf-8"?>
<!-- Generator: Adobe Illustrator 25.0.0, SVG Export Plug-In . SVG Version: 6.00 Build 0)  -->
<svg version="1.1" id="Capa_1" xmlns="http://www.w3.org/2000/svg" xmlns:xlink="http://www.w3.org/1999/xlink" x="0px" y="0px"
	 viewBox="0 0 230 124" style="enable-background:new 0 0 230 124;" xml:space="preserve">
<style type="text/css">
	.st0{fill:#22727C;}
</style>
<g>
	<g transform="scale(5.33333,5.33333)">
		<path class="st0" d="M6.2,19.8c-0.7-0.7-1.5-1.4-1.9-2.3c-1.1-1.7-1.9-3.6-2.5-5.6c-0.3-1.3-0.4-2.7-0.9-4c-0.4-1,0.1-2,0.9-2.3
			C2.1,5.5,2.8,5,2,5.5C1.4,6,1.2,4.9,2,4.7c0.4-0.1,0.7-0.6,0.4-1C1.9,3.3,3.6,2.9,2.8,2.1C1.9,0.9,4,0.7,3.5,2.1
			C3.4,3.3,4.9,2,4.6,3.2c0.3,0.6,1.5,0.1,1.5,1c0.6,0,0.8,0.7,1.2,0.7C7.8,5.2,8.9,5.5,9,6.2C8.5,6.7,7.3,5,7.2,6.6
			c0.1,2.3,0.1,4.6,0.8,6.8c0.3,1.3,1,2.3,1.7,3.3c0.7,1,1.5,1.7,2.3,2.3c0.8,0.4,1.6,0.7,2.5,1c0.3-0.3,0.9-1.6,1.5-1
			c0,0.6-1,1.3,0,1.1c0.6-0.3,1,0.6,1.5-0.1c0.4,0.7,1.9-0.4,1.6,1c-0.4,0.3-1,0.1-1.5,0.6c-0.7-0.4-1.2,0.4-2,0.3
			c-0.9,0.1-1.8,0.3-2.7,0.3C11.3,22,9.9,22,8.4,21.3C7.6,21,6.8,20.4,6.2,19.8L6.2,19.8z M7.4,20.4c0.8,0.4,1.5,0.9,2.3,1
			c1.3,0.3,2.7,0.6,4,0.3c-0.6-0.3-1.2,0.1-1.8-0.3c-0.7,0.1-1.5,0-2.2-0.1c-0.8-0.4-1.7-0.9-2.5-1.4c-1-0.4,0.4,0.6,0.8,0.7
			c0.6,0.4-0.7-0.3-0.9-0.4c-0.6-0.4-0.6-0.3,0,0.1C7.2,20.3,7.3,20.4,7.4,20.4z M5.9,19.1c0.8,0.3,0-0.7-0.3-0.6
			C5.5,18.2,5,18,5.4,17.8c-0.6,0.3-0.6-0.9-0.8-0.7c-0.6-0.3-0.2-1-0.9-1.6c-0.1-0.6-0.8-1-0.9-1.7c-0.1-0.4-0.7-1.6-0.3-0.4
			c0.3,1,0.9,2,1.3,2.9c0.3,0.9,0.8,1.7,1.5,2.3C5.5,18.7,5.6,19.1,5.9,19.1z M9.2,21c0.3,0.3,1.8,0.6,0.9,0.1
			C9.9,21.1,8.4,20.4,9.2,21z M5.8,17.4c0.3,0.3,1.5,0,0.6-0.1c-0.3-0.3-1.2-0.4-0.7,0.1H5.8z M7.6,18.5c0.9,0.3-0.8-0.7-0.2-0.1
			L7.6,18.5L7.6,18.5z M9.1,19.7C10,19.7,8.4,19.5,9.1,19.7z M7.6,18c0.7,0.1-0.8-0.6-0.1,0H7.6z M9.7,19.7c0.6-0.4,0.4,1,1,0.1
			c0.6-0.6-0.6,0.7,0.2,0.1c0.6-0.4,1.3,0.3,1.8,0.4c0.3,0,0.7,0.4,1.1,0.1c0.7-0.3-1.3-0.4-0.8-0.9c-0.7,0.3-1.1-0.3-1.5-0.9
			c-0.7-0.1-1.6-0.7-1.9-1.4c-0.1-0.3,0.2,0-0.1-0.4c-0.4-0.4-0.7-1-0.9-1.7c-0.3-0.3-0.3-1-0.4,0c0-0.6-0.4-1-0.6-0.9
			c0-0.6,0.4-0.3,0.1-0.7c-0.1-0.6-0.3-1.1-0.3-1.9c-0.1-0.1-0.1-0.9-0.4-0.1c-0.1,0.7,0-0.9,0.1-0.4c0.2-0.6-0.1-0.4-0.1-0.4
			c0.1-0.4,0.1-1.1,0-0.9C7.2,9.3,7.2,8,6.9,8.3c0.2-0.4,0.3-2.4-0.3-1.7c-0.3,0-0.9,0.1-1.1,0.3c0.8,0.6,0,0.3-0.3,0.1
			c0,0.6-0.3,0.3-0.8,0.3C4.9,7.5,4,8.2,3.7,7.9C3.3,8.2,4,8.9,3.7,9C3.7,9.3,3,8.9,3,9.6c-0.4-0.3-0.1,0.9,0.1,0.4
			c0.8,0.3,0.6,0.9,0.6,1.4c-0.1,0.3-0.6-0.7-0.1-0.7c-0.3-0.9-0.4-0.3-0.8,0.1c-0.1,0,0.8,0.6,0.2,0.7c0.4,0.1,0.6,0.7,0.6,1
			c0.3,0.4,0.2-0.4,0.6,0c0.1-0.3-0.9-1-0.1-0.9c0-0.4-0.1-0.7,0.1-0.7c0.2-0.6-0.2,1.3,0.3,0.7c0.1-0.1,0.2-0.6,0.4,0
			c0.3,0.4,0.1,0.9-0.4,0.4c0.1,0.4,0.7,0.6,0.6,1.3c0.1,0.6,0.3,0.4,0.4,0.3c0.1,0.6,0.2,0.1,0.2-0.1c0.6,0.1,0.4,0.6,0.6,0.9
			c0.3,0.3-0.6-1.4,0.1-0.6c0.7,0.9,0.2,1.1-0.3,1c0.3,0,0.6,0.7,1,0.7c0.4,0.3,0.8,1.3,0,0.9c-0.2-0.3-1.2-0.7-0.4-0.1
			c0.7,0.4,1.2,0.7,1.9,1.1c0.4,0.4,0.7,1,0.9,1c-0.4,0.3-1.2-0.1-0.7-0.3C8.4,18.1,8,18,8.3,18.5c0.3,0.3,1.1,0.3,1.2,0.3
			c-0.1,0.3-0.3,0.4,0,0.4C9.3,19.5,9.7,19.5,9.7,19.7z M9.1,17c-0.2-0.3-0.3-0.9,0-0.4C9.1,16.7,9.4,17.5,9.1,17z M7.6,13.9
			C7.3,13.2,7.7,13.5,7.6,13.9L7.6,13.9z M5.2,11.8c-0.1-0.3-0.3-1-0.2-1.3c0.1,0.4,0.6,1.6,0.2,0.6c-0.4-0.9,0.4,0.3,0.6,0.6
			c0,0.3-0.2,0,0,0.4C5.3,11.5,5.4,12.4,5.2,11.8z M3.8,10.5c-0.3-0.4-0.4-0.7,0-0.3c0.2,0-0.4-0.7,0-0.3
			C4.5,10.1,4.2,11.1,3.8,10.5z M4,9.9c-0.8-1,1,0.4,0.1,0.1L4,9.9z M6.4,11.6c-0.3-0.3-0.1-1.9,0-0.9c0.3-0.1,0,0.6,0.2,0.6
			C6.6,11.9,6.5,12.1,6.4,11.6z M4.2,9.6c-0.6-1,1.6,1,0.3,0.3C4.4,9.8,4.3,9.8,4.2,9.6z M5.9,10.8C5.8,9.9,6.1,10.9,5.9,10.8z
			 M4.3,9.2C4.6,9,5.6,9.9,4.7,9.5C4.6,9.3,4.4,9.3,4.3,9.2z M6.9,10.9C7.1,10.2,7.2,10.5,6.9,10.9L6.9,10.9L6.9,10.9z M4.5,8.9
			c0.1-0.1-0.3-1,0.1-0.3C4.8,8.8,5.2,8.9,4.8,9C5.3,9.6,4.7,9.2,4.5,8.9z M6.4,9C6.3,8.8,6.5,9.5,6.4,9z M6.6,8.5
			C6.4,8.2,6.8,6.9,6.8,7.6c-0.2,0.6,0,1,0.1,0.1C7.2,7.2,6.8,9,6.6,8.5z M7.3,17.5c0.4,0.1,0.4-0.1,0-0.1c-0.2-0.3-0.9-0.6-0.3,0
			C7.1,17.5,7.2,17.5,7.3,17.5z M5.6,16.1c0.2,0.3,1,0.7,0.3,0.1c0.2-0.3-0.3-0.4-0.2-0.7c-0.4-0.4-0.4-0.4,0-0.3
			c-0.6-0.3,0.1-0.3,0-0.4c-0.2,0-1.1-0.6-0.6,0c-0.6-0.4-0.1,0.1-0.3,0.1c-0.6-0.1,0.4,0.6-0.1,0.4c0.3,0.3,0.9,0.9,0.1,0.3
			C4.8,15.8,5.4,15.9,5.6,16.1z M11.4,20.5c0.2-0.3,0,0.4,0.4-0.1c0-0.4,0-0.6-0.4-0.1C11.3,20.4,11.2,20.8,11.4,20.5z M7.4,17.2
			c0.2,0.3,1.2,0.3,0.3,0C7.6,17,6.8,17.1,7.4,17.2z M12.2,20.8C12.7,20.3,11.8,21,12.2,20.8z M2.8,13.4c-0.4-0.7-0.2-1-0.7-1.7
			c-0.1-0.4-0.7-1.4-0.3-0.4C2.3,11.9,2.4,12.9,2.8,13.4z M12.5,20.8C13,20.4,12.4,20.5,12.5,20.8L12.5,20.8z M13.2,21
			c0.6-0.4-0.3-0.1-0.1,0.1L13.2,21z M4.2,13.6c0.4,0.1,1.6,1.3,0.9,0.1c-0.3-0.1-0.1-1.3-0.6-1c0.2,0.6,0.2,0.7-0.3,0.4
			c-0.7-0.4-0.3,0.1-0.2,0.4C3.8,13.5,4.3,13.6,4.2,13.6z M2.4,11.8c0.1-0.4-0.7-2-0.3-0.9C2.1,11.2,2.1,11.8,2.4,11.8z M10.5,18.1
			C10.4,17.8,10.2,18.1,10.5,18.1z M14.7,20.5c0.3-0.1,1.2,0.3,1.5-0.1c-0.4,0-1.7-0.4-1.7,0.1h0.1H14.7L14.7,20.5z M2.6,9.6
			C3,9.5,1.9,9.2,2.6,9.6L2.6,9.6z M1.4,7.9C1.2,7.3,1.4,6.5,2,6.7C1.1,7,2.6,8.2,2.4,7.3c0.4,0,0.8-0.3,0.6,0.1
			c0.8-0.1,1.3-1,2-0.9c0.6-0.1,1.2-0.1,1.8-0.4c0.4,0,1-0.7,0.7-1.1C6.7,4.9,6.1,5,5.3,5.3C4.5,5.5,3.7,5.9,2.9,6
			C2,6.2,3,6.5,2.8,6.5C2.4,6.6,3.4,6.7,2.8,7C2.4,6.9,2,6.7,2.1,6.3C1.4,6.5,0.7,6.9,1.4,7.9L1.4,7.9L1.4,7.9L1.4,7.9z M3.3,6.6
			c0.2-0.9,1,0.7,0.3,0.1C3.5,6.7,3.4,6.6,3.3,6.6z M3.6,6.3c0-0.4,0.8,0.1,0.1,0.1L3.6,6.3z M4.3,5.9c0.3-0.4,1.6-0.3,0.7,0
			C4.6,5.6,4.4,6,4.3,5.9z M6.4,5.6C6.6,5,7.1,5.3,6.4,5.6C6.5,5.5,6.5,5.7,6.4,5.6z M2.5,8.8C3,8.3,1.9,8.3,2.5,8.8z M17.8,20.5
			c0.4,0,1.2-0.1,0.3-0.1C18,20.4,17.4,20.4,17.8,20.5z M3.3,8.6c0.3,0,0.6-0.4-0.1-0.4C2.3,8,4,8.6,3,8.5C2.9,8.5,3.3,8.6,3.3,8.6z
			 M2.7,5.2c0.6-0.3,1.5-0.6,1.8,0.1C4.2,4.9,4.4,4.4,4.6,5C5,5.7,5.3,4.7,4.9,4.4c0.3,0.4,0.7,0.7,0.2,0c0.4-0.7-0.9,0.1-1.2,0.1
			C3.8,4.7,2.4,5,2.7,5.2z M3.1,4.3c0.3-0.4,1.1,0.1,0.7-0.4C3.7,3.9,2.6,4.3,3.1,4.3z M4.4,4.3c0.4,0-0.2-0.7,0.3-0.4
			C4.6,3.6,4.2,3.6,3.9,3.4C3.7,3.7,4.2,4.3,4.4,4.3z M3.8,3c0.7-0.1-0.1-0.4-0.1,0H3.8z M2.9,2C2.5,1.3,3.7,2.1,3.3,1.3
			C2.9,1,2.5,1.9,2.9,2z M8.9,6.2C9.1,5.7,8,5.5,8.7,6C8.7,6,8.7,6.2,8.9,6.2z"/>
		<path class="st0" d="M18.9,2.9c-0.1,0.4-0.1,1-0.1,2c0,0.1-0.1,0.3-0.2,0.3c-0.1,0-0.2-0.1-0.2-0.3C18.2,4.4,18.1,4.2,18,4
			c-0.1-0.1-0.3-0.3-0.6-0.3s-0.9-0.1-1.9-0.1c-0.2,0-0.3,0-0.4,0.1c0,0-0.1,0.1-0.1,0.3v3.9C15,8,15.1,8,15.2,8c0.4,0,1,0,1.7-0.1
			c0.1,0,0.2-0.1,0.3-0.1c0-0.1,0.1-0.4,0.1-0.7c0-0.3,0.1-0.3,0.3-0.3c0.1,0,0.2,0.1,0.2,0.3c-0.1,0.7-0.1,1.9-0.1,3
			c0,0.1-0.1,0.3-0.2,0.3s-0.2,0-0.2-0.3c-0.1-0.7-0.3-1.1-0.7-1.1c-0.3,0-0.8-0.1-1.6-0.1c-0.1,0-0.1,0-0.1,0.1v3.9
			c0,0.3,0.1,0.4,0.2,0.6c0.1,0.1,0.4,0.1,0.9,0.3c0.2,0,0.3,0.1,0.3,0.4c0,0.1-0.2,0.3-0.6,0.3c-1-0.1-1.9-0.1-2.6,0
			c-0.2,0-0.3,0-0.3-0.3c0-0.1,0.1-0.3,0.3-0.3c0.4,0,0.7-0.6,0.7-1.4V4.6c0-0.4,0-0.7-0.1-0.9s-0.3-0.4-0.6-0.6
			c-0.2-0.1-0.2-0.3-0.2-0.4c0-0.1,0.1-0.1,0.1-0.1s0.1,0,0.3,0c0.3,0,0.9,0.1,2,0.1c1.2,0,2.3,0,3.2-0.1
			C18.7,2.6,18.9,2.6,18.9,2.9C18.9,2.7,18.9,2.7,18.9,2.9z"/>
		<path class="st0" d="M23.3,13.8c0,0.3-0.1,0.3-0.3,0.3c-0.7-0.1-1.3,0-2.3,0c-0.2,0-0.3,0-0.3,0s-0.1-0.1-0.1-0.3
			c0-0.1,0.1-0.3,0.3-0.3c0.2-0.1,0.3-0.4,0.3-0.9V4.7c0-0.4,0-0.9-0.1-1c-0.1-0.3-0.3-0.4-0.6-0.6c-0.1,0-0.2-0.1-0.2-0.3
			c0-0.1,0.1-0.3,0.3-0.4c0.3-0.1,0.7-0.3,0.9-0.6c0.2-0.1,0.4-0.3,0.6-0.3s0.2,0.1,0.2,0.4c0,0,0,0.3,0,0.9s0,1.1,0,1.7v7.8
			c0,0.3,0.1,0.6,0.2,0.7c0.1,0.1,0.3,0.3,0.7,0.3C23.2,13.5,23.3,13.6,23.3,13.8z"/>
		<path class="st0" d="M29.3,13.2c0,0.1-0.2,0.3-0.6,0.6c-0.3,0.3-0.7,0.4-0.8,0.4c-0.2,0-0.3-0.1-0.4-0.3c-0.1-0.3-0.2-0.3-0.3-0.3
			c0,0-0.2,0.1-0.7,0.3c-0.3,0.3-0.8,0.3-1.1,0.3s-0.7-0.1-0.9-0.4c-0.2-0.3-0.3-0.7-0.3-1.3c0-1,0.9-1.7,2.7-2.2
			c0.3-0.1,0.4-0.3,0.4-0.4V9.3c0-1-0.3-1.4-1-1.4c-0.2,0-0.3,0.3-0.6,0.7C25.5,9,25.3,9.3,25,9.3c-0.3,0-0.6-0.1-0.6-0.6
			c0-0.3,0.2-0.6,0.8-1c0.6-0.4,1.1-0.6,1.7-0.6c0.9,0,1.3,0.6,1.3,1.7v3.6c0,0.4,0.1,0.6,0.3,0.6c0,0,0.1,0,0.3,0
			c0.1,0,0.2,0,0.2,0C29.3,12.9,29.3,12.9,29.3,13.2z M27.3,11.2c0-0.1,0-0.3-0.1-0.3c0,0-0.1,0-0.2,0c-1.1,0.3-1.6,0.7-1.6,1.3
			c0,0.7,0.3,1,0.9,1c0.2,0,0.4,0,0.7-0.1s0.4-0.3,0.4-0.4L27.3,11.2z"/>
		<path class="st0" d="M34.4,12.2c0,0.6-0.2,1.1-0.6,1.4c-0.3,0.4-0.9,0.6-1.5,0.6c-0.4,0-0.9,0-1.2-0.1c-0.3-0.1-0.6-0.1-0.7-0.3
			c0-0.1,0-0.4,0-1.1c0-0.3,0-0.4,0.1-0.4s0.2,0,0.2,0.3c0.3,0.7,0.9,1.1,1.7,1.1c0.7,0,0.9-0.3,0.9-0.9c0-0.3-0.1-0.4-0.2-0.6
			c-0.1-0.1-0.4-0.4-0.9-0.7c-0.7-0.4-1.1-0.7-1.3-1s-0.3-0.7-0.3-1.1c0-0.6,0.2-1.1,0.6-1.4c0.4-0.6,0.9-0.7,1.5-0.7
			c0.3,0,0.7,0,1,0.1c0.3,0.1,0.4,0.1,0.6,0.3c0,0.3,0.1,0.7,0.2,1.4c0,0.1,0,0.1-0.2,0.1c-0.1,0-0.2,0-0.3-0.1
			c-0.3-0.7-0.8-1.1-1.3-1.1c-0.6,0-0.9,0.3-0.9,0.7c0,0.3,0.1,0.6,0.2,0.7c0.1,0.1,0.4,0.4,1,0.7s1,0.6,1.1,0.9
			C34.2,11.2,34.4,11.6,34.4,12.2L34.4,12.2z"/>
		<path class="st0" d="M42.2,13.8c0,0.1-0.1,0.3-0.3,0.3c-0.3,0-0.7,0-1.2,0.1c-0.2,0-0.4,0-0.6-0.1c-0.7-1-1.3-2-1.8-3
			c0-0.1-0.1-0.1-0.1-0.1c-0.1,0-0.2,0.1-0.4,0.3c-0.2,0.1-0.3,0.4-0.3,0.6c0,0.1,0,0.4,0,0.9s0.1,0.6,0.2,0.7
			c0.1,0.1,0.3,0.1,0.7,0.1c0.2,0,0.3,0.1,0.3,0.3c0,0.1,0,0.1,0,0.3c0,0-0.1,0-0.2,0c-0.4,0-1.2,0-2.2,0.1c-0.2,0-0.4,0-0.4-0.1
			v-0.1c0-0.1,0.1-0.3,0.4-0.4c0.2-0.1,0.3-0.4,0.3-1.1V4.7c0-0.4,0-0.9-0.1-1c-0.1-0.3-0.3-0.4-0.7-0.6c-0.2,0-0.3-0.1-0.3-0.1
			c0-0.1,0.1-0.3,0.3-0.4c0.3-0.1,0.7-0.3,1-0.6c0.2-0.1,0.4-0.3,0.4-0.3c0.2,0,0.2,0.1,0.2,0.4c0,0,0,0.3,0,0.9c0,0.4,0,1,0,1.7
			v5.5c0,0.1,0,0.3,0.1,0.3c0.1,0,0.2-0.1,0.3-0.3c0.3-0.4,0.8-0.9,1.3-1.4c0.1-0.1,0.1-0.3,0.1-0.3c0-0.1-0.2-0.3-0.6-0.3
			c-0.1,0-0.2-0.1-0.2-0.3c0.1-0.6,0.2-0.6,0.3-0.6c0.3,0,0.8,0.1,1.5,0.1c0.4,0,0.9,0,1.2,0c0.1,0,0.2,0.1,0.2,0.3
			c0,0.1-0.1,0.3-0.3,0.3c-0.3,0-0.7,0.1-1,0.3C40,8.6,39.5,9,39.1,9.6v0.1c0,0.1,0.1,0.3,0.2,0.6c0.6,1.1,1.1,1.9,1.6,2.4
			c0.3,0.3,0.7,0.6,0.9,0.6s0.3,0,0.3,0C42.2,13.5,42.2,13.5,42.2,13.8L42.2,13.8z"/>
	</g>
</g>
</svg>
