<?xml version="1.0" encoding="utf-8"?>
<!-- Generator: Adobe Illustrator 25.0.0, SVG Export Plug-In . SVG Version: 6.00 Build 0)  -->
<svg version="1.1" id="Capa_1" xmlns="http://www.w3.org/2000/svg" xmlns:xlink="http://www.w3.org/1999/xlink" x="0px" y="0px"
	 viewBox="0 0 100 108" style="enable-background:new 0 0 100 108;" xml:space="preserve">
<style type="text/css">
	.st0{fill:#22727C;}
</style>
<g>
	<g transform="scale(5.33333,5.33333)">
		<path class="st0" d="M2.3,0.9c-1.1,0-2,0.9-1.9,1.8l0.3,3.5c0,0.3,0.2,0.5,0.5,0.6C1.4,6.9,1.7,6.9,2,6.8c0.2-0.2,0.4-0.4,0.3-0.7
			L2,2.6c0-0.2,0.1-0.3,0.3-0.3h14.6c0.2,0,0.3,0.1,0.3,0.3l-0.8,9.4c0,0.4,0.3,0.8,0.8,0.8c0.5,0,0.8-0.3,0.9-0.7l0.8-9.4
			c0.1-1-0.8-1.8-1.9-1.8L2.3,0.9z M5.2,4.8C4.9,4.8,4.7,5,4.7,5.3l0.4,4.8c0,0.3,0.3,0.4,0.5,0.4h6.8l-0.3,3.1l-2.6,0.7L7,13.7
			l-0.1-1c0-0.4-0.4-0.7-0.8-0.7c-0.5,0-0.9,0.4-0.8,0.8l0.1,1.6c0,0.2,0.2,0.4,0.4,0.4l3.6,1c0.1,0,0.2,0,0.3,0l3.7-1
			c0.2-0.1,0.4-0.2,0.4-0.4l0.4-4.8c0-0.3-0.2-0.5-0.5-0.5h-7L6.4,6.3h7.2c0.4,0,0.8-0.3,0.8-0.7c0-0.4-0.3-0.8-0.8-0.8L5.2,4.8z
			 M1.8,8.6c-0.2,0-0.5,0.1-0.6,0.2C1,9,1,9.2,1,9.4l0.7,7.3c0.1,0.7,0.6,1.2,1.3,1.5l6,1.9c0,0,0,0,0,0c0.4,0.1,0.9,0.1,1.3,0
			l6-1.9c0.7-0.2,1.2-0.8,1.3-1.5l0.2-1.7c0-0.3-0.1-0.5-0.3-0.7c-0.2-0.2-0.6-0.2-0.8-0.1c-0.3,0.1-0.4,0.3-0.5,0.6l-0.2,1.7
			c0,0.1-0.1,0.2-0.2,0.2c0,0,0,0,0,0l-6,1.9c-0.1,0-0.1,0-0.2,0l-6-1.9c-0.1,0-0.2-0.1-0.2-0.2L2.6,9.3C2.6,8.9,2.2,8.6,1.8,8.6
			L1.8,8.6z"/>
	</g>
</g>
</svg>
