<?xml version="1.0" encoding="utf-8"?>
<!-- Generator: Adobe Illustrator 25.0.0, SVG Export Plug-In . SVG Version: 6.00 Build 0)  -->
<svg version="1.1" id="Capa_1" xmlns="http://www.w3.org/2000/svg" xmlns:xlink="http://www.w3.org/1999/xlink" x="0px" y="0px"
	 viewBox="0 0 800 697" style="enable-background:new 0 0 800 697;" xml:space="preserve">
<style type="text/css">
	.st0{fill:#22727C;stroke:#22727C;stroke-miterlimit:133.3333;}
	.st1{fill-rule:evenodd;clip-rule:evenodd;fill:#22727C;stroke:#22727C;stroke-miterlimit:133.3333;}
</style>
<g id="SVGRepo_bgCarrier">
</g>
<g id="SVGRepo_tracerCarrier">
</g>
<g id="SVGRepo_iconCarrier">
	<path class="st0" d="M531.1,284.8v178.6h-45.5V284.8H531.1z"/>
	<path class="st0" d="M483,234.9c0-13.9,10.3-24.6,25.3-24.6c15.4,0,24.9,10.6,25.3,24.6c0,13.6-9.9,24.2-25.7,24.2
		C492.9,259.1,483,248.5,483,234.9z"/>
	<path class="st1" d="M421.1,463.3l-22.4-70h-78.5l-21.3,70h-46.6l79.2-247.1h57.6l80.3,247.1H421.1z M346.7,298.3l-19.1,60.9h63.4
		l-19.4-60.9c-3.9-12.2-7.2-25.5-10.3-37.8c-0.7-2.9-1.4-5.7-2.1-8.4h-0.7c-1.3,4.9-2.5,10.1-3.8,15.5
		C352.2,278,349.6,288.7,346.7,298.3z"/>
	<path class="st1" d="M575.3,41.1c-115.6-12.9-235-12.9-350.6,0c-67.1,7.5-121.2,60.3-129.1,127.7c-13.8,118.1-13.8,237.5,0,355.6
		c7.9,67.4,62,120.3,129.1,127.7c115.6,12.9,235,12.9,350.6,0c67.1-7.5,121.2-60.3,129.1-127.7c13.8-118.1,13.8-237.5,0-355.6
		C696.5,101.4,642.3,48.6,575.3,41.1z M230.3,90.8c111.9-12.5,227.6-12.5,339.4,0c44.3,5,79.9,39.9,85,83.9
		c13.4,114.3,13.4,229.7,0,344c-5.1,43.9-40.7,78.9-85,83.9c-111.9,12.5-227.6,12.5-339.4,0c-44.3-5-79.9-39.9-85-83.9
		c-13.4-114.3-13.4-229.7,0-344C150.4,130.8,185.9,95.8,230.3,90.8z"/>
</g>
</svg>
