<?xml version="1.0" encoding="utf-8"?>
<!-- Generator: Adobe Illustrator 25.0.0, SVG Export Plug-In . SVG Version: 6.00 Build 0)  -->
<svg version="1.1" id="Capa_1" xmlns="http://www.w3.org/2000/svg" xmlns:xlink="http://www.w3.org/1999/xlink" x="0px" y="0px"
	 viewBox="0 0 100 100" style="enable-background:new 0 0 100 100;" xml:space="preserve">
<style type="text/css">
	.st0{fill:#22727C;}
</style>
<g>
	<g transform="scale(5.33333,5.33333)">
		<path class="st0" d="M3.5,0.8c-1.4,0-2.6,1.2-2.6,2.6v8.1c0,0.3,0.1,0.5,0.4,0.6c0.2,0.1,0.5,0.1,0.7,0c0.2-0.1,0.4-0.4,0.4-0.6
			V3.4c0-0.7,0.5-1.2,1.2-1.2h11.8c0.7,0,1.2,0.5,1.2,1.2v0.6c0,0.3,0.1,0.5,0.4,0.6c0.2,0.1,0.5,0.1,0.7,0C17.9,4.4,18,4.2,18,3.9
			V3.4c0-1.4-1.2-2.6-2.6-2.6H3.5z M17.3,6c-0.4,0-0.7,0.3-0.7,0.7v8.5c0,0.7-0.5,1.2-1.2,1.2H3.5c-0.7,0-1.2-0.5-1.2-1.2v-0.8
			c0-0.3-0.1-0.5-0.4-0.6c-0.2-0.1-0.5-0.1-0.7,0c-0.2,0.1-0.4,0.4-0.4,0.6v0.8c0,1.4,1.2,2.6,2.6,2.6h11.8c1.4,0,2.6-1.2,2.6-2.6
			V6.7c0-0.2-0.1-0.4-0.2-0.5C17.7,6.1,17.5,6,17.3,6z M8.7,8.5v4.6C8.7,13.8,8.4,14,8,14c-0.5,0-0.8-0.3-1-0.7L5.8,14
			c0.3,0.7,1.1,1.5,2.3,1.5c1.2,0,2.1-0.7,2.1-2.1V8.5H8.7z M13.2,8.5c-1.2,0-2,0.8-2,1.8c0,1.1,0.7,1.7,1.7,2.1l0.3,0.1
			c0.6,0.3,0.9,0.4,0.9,0.9c0,0.4-0.3,0.7-0.9,0.7c-0.7,0-1-0.5-1.3-1L10.9,14c0.4,0.8,1.1,1.5,2.4,1.5c1.3,0,2.3-0.7,2.3-1.9
			c0-1.2-0.7-1.7-1.8-2.2l-0.3-0.1c-0.6-0.3-0.9-0.4-0.9-0.8c0-0.3,0.3-0.6,0.7-0.6c0.4,0,0.7,0.2,0.9,0.6l1.1-0.7
			C14.7,8.8,14.1,8.5,13.2,8.5L13.2,8.5z"/>
	</g>
</g>
</svg>
