<?xml version="1.0" encoding="utf-8"?>
<!-- Generator: Adobe Illustrator 25.0.0, SVG Export Plug-In . SVG Version: 6.00 Build 0)  -->
<svg version="1.1" id="Capa_1" xmlns="http://www.w3.org/2000/svg" xmlns:xlink="http://www.w3.org/1999/xlink" x="0px" y="0px"
	viewBox="0 0 128.7 83" style="enable-background:new 0 0 128.7 83;" xml:space="preserve">
<style type="text/css">
	.st0{fill:#22727C;}
</style>
<g>
	<g transform="scale(5.12,5.12)">
		<path class="st0" d="M15.6,1.6c-0.2,0-0.4,0.1-0.5,0.3C15,2.3,15.4,2.8,15.5,3c0.1,0.2,0.2,0.3,0.3,0.5c0,0.1,0.1,0.2,0.1,0.4
			c0.1,0.3,0.3,0.6,0.4,0.9c0.1,0.1,0.1,0.3,0.2,0.4c0.1,0.1,0.1,0.1,0.2,0.2c-0.1,0.1-0.1,0.3-0.1,0.5c-0.2,0.8-0.1,1.7,0.2,2.2
			c0.1,0.2,0.3,0.5,0.6,0.4c0.3-0.1,0.2-0.5,0.3-0.8c0-0.1,0-0.1,0-0.2v0c0.1,0.2,0.2,0.4,0.2,0.5c0.2,0.3,0.5,0.7,0.8,0.9
			c0.1,0.1,0.3,0.3,0.4,0.4v0h0c0-0.1-0.1-0.1-0.1-0.1c-0.1-0.1-0.2-0.3-0.3-0.4C18.5,8.4,18.2,8,18,7.6c-0.1-0.2-0.2-0.4-0.3-0.6
			c0-0.1,0-0.2-0.1-0.2c-0.1,0.2-0.2,0.3-0.3,0.5c-0.1,0.3-0.1,0.6-0.2,1c0,0,0,0,0,0c-0.2-0.1-0.3-0.3-0.3-0.5
			c-0.2-0.5-0.2-1.2-0.1-1.8c0-0.1,0.2-0.6,0.2-0.7c0-0.1-0.2-0.2-0.2-0.3c-0.1-0.1-0.2-0.3-0.2-0.4c-0.1-0.4-0.3-0.8-0.4-1.2
			C16,3.2,15.8,3,15.7,2.8c-0.1-0.2-0.2-0.3-0.3-0.5c0-0.1-0.1-0.2,0-0.3c0-0.1,0-0.1,0.1-0.1c0.1-0.1,0.3,0,0.4,0.1
			c0.2,0.1,0.4,0.2,0.6,0.3c0.1,0.1,0.2,0.2,0.3,0.2h0.1c0.2,0,0.4,0,0.6,0.1c0.3,0.1,0.6,0.3,0.9,0.5c0.8,0.6,1.5,1.3,1.9,2.3
			c0.1,0.2,0.1,0.3,0.2,0.5c0.1,0.3,0.3,0.7,0.4,1c0.1,0.3,0.3,0.6,0.4,0.9c0.1,0.1,0.5,0.2,0.6,0.3c0.1,0.1,0.3,0.1,0.4,0.2
			c0.2,0.1,0.4,0.3,0.6,0.5C23,8.7,23.3,8.9,23.4,9c-0.5,0-0.9,0-1.2,0.2c-0.1,0-0.2,0-0.3,0.2C22,9.4,22,9.5,22,9.6
			c0.1,0.1,0.2,0.3,0.3,0.4c0.1,0.1,0.3,0.2,0.4,0.3c0.2,0.2,0.5,0.2,0.7,0.4c0.1,0.1,0.3,0.2,0.4,0.3c0.1,0.1,0.1,0.1,0.2,0.2v0
			C24,11.1,24,11,24,11l-0.2-0.2c-0.2-0.3-0.4-0.5-0.6-0.7C23,10,22.5,9.8,22.5,9.5l0,0c0.1,0,0.3-0.1,0.4-0.1
			c0.2-0.1,0.4,0,0.6-0.1c0.1,0,0.2-0.1,0.3-0.1V9.1c-0.1-0.1-0.2-0.3-0.3-0.4c-0.3-0.3-0.7-0.6-1-0.8c-0.2-0.1-0.4-0.2-0.6-0.3
			c-0.1,0-0.2-0.1-0.2-0.1c-0.1-0.2-0.2-0.3-0.3-0.5c-0.2-0.4-0.3-0.8-0.5-1.2c-0.1-0.3-0.2-0.5-0.3-0.8c-0.6-1.1-1.3-1.8-2.4-2.5
			c-0.2-0.1-0.5-0.2-0.8-0.3c-0.2,0-0.3,0-0.5,0c-0.1,0-0.2-0.2-0.3-0.2C16.4,1.8,16,1.6,15.6,1.6L15.6,1.6z M17.1,3.2
			c-0.1,0-0.2,0-0.3,0v0h0c0,0.1,0.1,0.2,0.2,0.3c0,0.1,0.1,0.2,0.1,0.3l0,0c0.1-0.1,0.1-0.2,0.1-0.3c0,0,0-0.1-0.1-0.1
			C17.3,3.3,17.2,3.3,17.1,3.2L17.1,3.2z M2.2,9.5c-0.1,0-0.3,0-0.4,0.1c-0.3,0.1-0.4,0.3-0.4,0.6V14h0.9v-3.7l1.3,3.1
			C3.7,13.9,3.9,14,4.3,14c0.4,0,0.6-0.1,0.8-0.5l1.3-3.1V14h0.9v-3.8c0-0.4-0.1-0.5-0.4-0.6c-0.6-0.2-1.1,0-1.3,0.5l-1.3,3.2
			l-1.3-3.2C2.9,9.7,2.6,9.5,2.2,9.5L2.2,9.5z M13.4,9.5c-0.4,0-1.5,0-1.5,1v0.6c0,0.4,0.4,0.8,1.1,0.9c0.1,0,0.2,0,0.3,0
			c0,0,0.9,0,0.9,0c0.5,0,0.5,0.4,0.5,0.5V13c0,0.1,0,0.5-0.5,0.5h-2.3V14h2.3c0.3,0,0.6-0.1,0.8-0.2c0.4-0.2,0.5-0.5,0.5-0.8v-0.7
			c0-0.8-0.9-0.8-1.4-0.8h-0.9c-0.4,0-0.4-0.2-0.5-0.5v-0.5c0-0.2,0.1-0.5,0.4-0.5h2.3V9.5L13.4,9.5z M16.9,9.5
			c-0.7,0.1-0.9,0.5-0.9,1V13c0,0.5,0.2,0.8,0.8,0.9c0.2,0.1,0.3,0.1,0.5,0.1l1,0h0.6l0.5,0.5h1l-0.7-0.7c0.3-0.2,0.4-0.4,0.4-0.8
			v-2.5c0-0.5-0.3-0.9-1-1L16.9,9.5z M20.6,9.5V13c0,0.6,0.3,0.9,1.1,1c0.1,0,0.2,0,0.2,0h2.3v-0.5h-2.1c-0.5,0-0.6-0.2-0.6-0.5V9.5
			H20.6z M17.4,10h1.2c0.3,0,0.5,0.3,0.6,0.5c0,0,0,2.3,0,2.5c0,0.2-0.1,0.2-0.1,0.2L18.9,13h-1l0.5,0.5h-0.9
			c-0.3,0-0.5-0.3-0.5-0.5v-2.4C16.9,10.3,17.1,10,17.4,10z M7.8,11c0,0,0,2.1,0,2.2c0,0.4,0.5,0.8,1.3,0.8h1.4v0
			c0,0.1,0.1,0.4-0.5,0.5c0,0-2.3,0-2.3,0V15h2.4c0.4,0,1.3-0.1,1.3-0.9c0,0,0-3.1,0-3.1h-0.9v2.5c0,0-1.1,0-1.4,0
			c-0.4,0-0.5-0.3-0.5-0.4V11H7.8z"/>
	</g>
</g>
</svg>
