<?xml version="1.0" encoding="utf-8"?>
<!-- Generator: Adobe Illustrator 25.0.0, SVG Export Plug-In . SVG Version: 6.00 Build 0)  -->
<svg version="1.1" id="Capa_1" xmlns="http://www.w3.org/2000/svg" xmlns:xlink="http://www.w3.org/1999/xlink" x="0px" y="0px"
	 viewBox="0 0 100 100" style="enable-background:new 0 0 100 100;" xml:space="preserve">
<style type="text/css">
	.st0{fill:#22727C;}
</style>
<g>
	<g transform="scale(5.33333,5.33333)">
		<path class="st0" d="M9.4,1C8.8,1,8.2,1,7.7,1.1c-0.2,0-0.4,0.2-0.5,0.4C7.1,1.8,7.2,2,7.3,2.2S7.7,2.4,8,2.4
			c0.5-0.1,0.9-0.1,1.4-0.1c4,0,7.3,3.3,7.3,7.3c0,1-0.2,1.9-0.6,2.8c-0.1,0.3,0,0.7,0.3,0.8c0.3,0.1,0.7,0,0.8-0.3
			c0.4-1,0.7-2.1,0.7-3.3C18,4.8,14.1,1,9.4,1L9.4,1z M3.2,3.9C3,3.9,2.8,4,2.7,4.2C1.5,5.6,0.8,7.5,0.8,9.5c0,4.7,3.9,8.6,8.6,8.6
			c1.7,0,3.2-0.5,4.5-1.3c0.2-0.1,0.3-0.3,0.3-0.6c0-0.2-0.1-0.4-0.3-0.6c-0.2-0.1-0.5-0.1-0.7,0c-1.1,0.7-2.4,1.1-3.9,1.1
			c-4,0-7.3-3.3-7.3-7.3c0-1.7,0.6-3.3,1.6-4.6c0.2-0.2,0.2-0.5,0.1-0.7S3.4,3.9,3.2,3.9L3.2,3.9z M12.4,4.8c-0.9,0-1.6,0.7-1.7,1.5
			c-0.5-0.2-1-0.2-1.4-0.2C8.4,6.1,7.7,6.4,7,7.2L5.7,8.4C5.5,8.6,5.5,8.9,5.6,9.1c0.1,0.2,0.3,0.4,0.6,0.4h1.2l-3,2.8
			c-0.2,0.1-0.2,0.4-0.2,0.6c0,0.2,0.2,0.4,0.3,0.5l2.6,1.3c0.2,0.1,0.4,0.1,0.6,0c0.2-0.1,0.3-0.3,0.3-0.5v-1
			c0.4-0.4,0.8-0.7,1.3-1c0.5-0.3,1-0.7,1.6-1.2c0.4-0.4,0.8-0.7,1-1.2c0.2-0.4,0.4-0.9,0.4-1.5c0,0,0,0,0,0c0.9,0,1.7-0.8,1.7-1.7
			C14.1,5.6,13.3,4.8,12.4,4.8L12.4,4.8z M12.4,6.1c0.2,0,0.4,0.2,0.4,0.4c0,0.2-0.2,0.4-0.4,0.4C12.1,7,12,6.8,12,6.5
			C12,6.3,12.1,6.1,12.4,6.1z M9.3,7.4c0.1,0,0.2,0,0.3,0L8.7,8.3h-1l0.2-0.2C8.5,7.4,8.6,7.4,9.3,7.4L9.3,7.4z M11,7.9
			c0,0,0.1,0.1,0.1,0.2c0,0.5-0.1,0.7-0.2,1C10.7,9.3,10.5,9.6,10,10c-0.5,0.5-0.9,0.7-1.4,1.1S7.6,11.8,7,12.4
			c-0.1,0.1-0.2,0.3-0.2,0.5v0.2L6,12.7L10.8,8c0,0,0,0,0,0C10.9,8,10.9,8,11,7.9L11,7.9z"/>
	</g>
</g>
</svg>
